# xmcd CD database file
#
# Track frame offsets:
#	150
#	20375
#	51762
#
# Disc length: 4440 seconds
#
# Revision: 2
# Processed by: cddbd v1.5.1PL0 Copyright (c) Steve Scherf et al.
# Submitted via: CDex 1.51
#
DISCID=1b115603
DTITLE=嘉陽愛子 - ring!Ring!!RING!!!
DYEAR=2004
DGENRE=JPop
TTITLE0=ring!Ring!!RING!!!
TTITLE1=ring!Ring!!RING!!!（instrumental）
TTITLE2=CCCD
EXTD=YEAR: 2004
EXTT0=
EXTT1=
EXTT2=
PLAYORDER=
